<svg xmlns="http://www.w3.org/2000/svg" viewBox="0 0 64 64">
  <rect width="64" height="64" rx="18" fill="#fff7f0"/>
  <path
    fill="#c4683c"
    d="M21 18c0 3.9-2.2 7-5 7s-5-3.1-5-7 2.2-7 5-7 5 3.1 5 7Zm14 0c0 3.9-2.2 7-5 7s-5-3.1-5-7 2.2-7 5-7 5 3.1 5 7Zm14 0c0 3.9-2.2 7-5 7s-5-3.1-5-7 2.2-7 5-7 5 3.1 5 7Zm-9 21c0 8.8-8.7 15-15 15S10 47.8 10 39c0-6.2 4.5-11 9.6-11 2.8 0 4.8 1.1 6.4 3.1 1.6-2 3.6-3.1 6.4-3.1C35.5 28 40 32.8 40 39Z"
  />
  <path
    fill="#9a4b29"
    d="M54 18c0 3.9-2.2 7-5 7s-5-3.1-5-7 2.2-7 5-7 5 3.1 5 7Z"
  />
</svg>
